<svg viewBox="0 0 1024 1024" version="1.1" xmlns="http://www.w3.org/2000/svg" p-id="3858">
  <path d="M85.333333 940.416a42.581333 42.581333 0 0 1-42.666666-42.666667V126.250667a42.666667 42.666667 0 0 1 42.666666-42.666667h316.8a42.666667 42.666667 0 0 1 39.466667 58.88L124.8 913.92a42.666667 42.666667 0 0 1-39.466667 26.453333z m607.744 0H581.546667a42.666667 42.666667 0 0 1-38.016-23.296l-64.938667-127.573333H382.421333a42.666667 42.666667 0 0 1-39.594666-58.538667L473.344 405.333333a42.666667 42.666667 0 0 1 39.594667-26.794666h0.426666a42.666667 42.666667 0 0 1 39.509334 27.562666l180.096 476.501334a42.666667 42.666667 0 0 1-39.893334 57.770666zM938.666667 930.517333a42.624 42.624 0 0 1-39.296-26.154666L578.56 142.762667a42.666667 42.666667 0 0 1 39.296-59.178667H938.666667a42.666667 42.666667 0 0 1 42.666666 42.666667v761.6a42.666667 42.666667 0 0 1-34.218666 41.813333 44.757333 44.757333 0 0 1-8.448 0.853333z"></path>
</svg>